<svg width="24.000000" height="24.000000" viewBox="0 0 24 24" fill="none" xmlns="http://www.w3.org/2000/svg" xmlns:xlink="http://www.w3.org/1999/xlink">
	<desc>
			Created with Pixso.
	</desc>
	<defs>
		<clipPath id="clip33_3545">
			<rect id="icon/cart" width="24.000000" height="24.000000" fill="white" fill-opacity="0"/>
		</clipPath>
	</defs>
	<rect id="icon/cart" width="24.000000" height="24.000000" fill="#FFFFFF" fill-opacity="0"/>
	<g clip-path="url(#clip33_3545)">
		<path id="Icon" d="M5 14L18.13 14C19.14 14 19.65 14 20.05 13.81C20.41 13.64 20.71 13.37 20.91 13.04C21.14 12.66 21.2 12.16 21.31 11.15L21.9 5.88C21.93 5.58 21.95 5.42 21.9 5.3C21.85 5.2 21.78 5.11 21.68 5.06C21.57 5 21.41 5 21.1 5L4.5 5M2 2L3.24 2C3.51 2 3.64 2 3.74 2.05C3.84 2.09 3.91 2.16 3.96 2.25C4.02 2.35 4.03 2.48 4.04 2.75L4.95 17.25C4.96 17.51 4.97 17.64 5.03 17.74C5.08 17.83 5.15 17.9 5.25 17.94C5.35 18 5.48 18 5.75 18L19 18M7.5 21.5L7.51 21.5M7.5 22C7.22 22 7 21.77 7 21.5C7 21.22 7.22 21 7.5 21C7.77 21 8 21.22 8 21.5C8 21.77 7.77 22 7.5 22ZM16.5 21.5L16.51 21.5M16.5 22C16.22 22 16 21.77 16 21.5C16 21.22 16.22 21 16.5 21C16.77 21 17 21.22 17 21.5C17 21.77 16.77 22 16.5 22Z" stroke="#334155" stroke-opacity="1.000000" stroke-width="2.000000" stroke-linejoin="round"/>
	</g>
</svg>
