<svg width="16.018555" height="16.018066" viewBox="0 0 16.0186 16.0181" fill="none" xmlns="http://www.w3.org/2000/svg" xmlns:xlink="http://www.w3.org/1999/xlink">
	<desc>
			Created with Pixso.
	</desc>
	<defs/>
	<path id="Vector" d="M7 1.49C5.54 1.49 4.14 2.07 3.11 3.11C2.07 4.14 1.5 5.54 1.5 6.99C1.5 8.45 2.07 9.85 3.11 10.88C4.14 11.91 5.54 12.49 7 12.49C8.45 12.49 9.85 11.91 10.88 10.88C11.92 9.85 12.5 8.45 12.5 6.99C12.5 5.54 11.92 4.14 10.88 3.11C9.85 2.07 8.45 1.49 7 1.49ZM0 6.99C0 5.87 0.26 4.77 0.78 3.78C1.29 2.78 2.04 1.93 2.95 1.28C3.87 0.63 4.92 0.22 6.03 0.06C7.14 -0.09 8.27 0.02 9.32 0.39C10.38 0.77 11.33 1.39 12.1 2.2C12.86 3.02 13.42 4 13.73 5.08C14.03 6.16 14.08 7.29 13.85 8.39C13.63 9.49 13.15 10.51 12.45 11.39L15.78 14.71C15.85 14.78 15.91 14.87 15.95 14.96C15.99 15.05 16.01 15.15 16.01 15.25C16.02 15.35 16 15.45 15.96 15.54C15.92 15.64 15.87 15.72 15.79 15.79C15.72 15.86 15.64 15.92 15.54 15.96C15.45 16 15.35 16.02 15.25 16.01C15.15 16.01 15.05 15.99 14.96 15.95C14.87 15.91 14.78 15.85 14.72 15.77L11.39 12.45C10.36 13.27 9.12 13.8 7.8 13.95C6.49 14.1 5.16 13.88 3.97 13.31C2.78 12.74 1.78 11.84 1.07 10.73C0.37 9.61 0 8.31 0 6.99Z" fill="#334155" fill-opacity="1.000000" fill-rule="evenodd"/>
</svg>
